<svg width="425" height="82" viewBox="0 0 425 82" fill="none" xmlns="http://www.w3.org/2000/svg">
<path d="M136.678 45.87L135.734 44.552C140.878 44.552 144.974 44.1189 148.024 43.2661L149.052 44.3127C147.672 44.7543 145.757 45.1183 143.318 45.3981V46.9385H149.797V48.2564H143.318V51.4568H147.455V59.2077H146.074V58.2369H139.174V59.2077H137.793V52.0029C137.286 52.2944 136.544 52.6012 135.574 52.9399L134.557 51.8023C137.248 50.9681 139.204 49.7884 140.423 48.2564H135.52V46.9385H141.937V45.5834C139.359 45.7756 137.61 45.87 136.678 45.87ZM138.714 51.4568H141.937V48.526H141.901C141.149 49.6586 140.086 50.6175 138.714 51.413V51.4568ZM139.174 54.0876H146.074V52.7764H139.174V54.0876ZM139.174 56.9156H146.074V55.4073H139.174V56.9156ZM150.487 51.6136L149.559 52.6804C147.968 51.1147 145.932 50.0074 143.459 49.3535L144.456 48.2648C146.601 48.8311 148.61 49.9434 150.487 51.6136Z" fill="#231816"/>
<path d="M152.708 48.5564L153.536 47.557C154.834 48.0053 155.824 48.794 156.5 49.9265L155.474 50.8333C154.733 49.7058 153.816 48.9474 152.708 48.5564ZM165.451 48.3491H168.229V49.667H165.451C165.838 50.2855 166.397 50.8906 167.128 51.4737C167.858 52.0568 168.518 52.4326 169.111 52.6096L168.173 53.6882C167.311 53.2686 166.611 52.8 166.079 52.2826V55.505H160.589V56.6089C160.589 57.0269 160.755 57.2308 161.083 57.2308H165.789C165.983 57.2308 166.141 57.1617 166.265 57.0269C166.39 56.8887 166.5 56.3797 166.582 55.505H167.897C167.858 56.6561 167.69 57.4516 167.404 57.8914C167.114 58.3296 166.676 58.5487 166.089 58.5487H160.652C160.182 58.5487 159.827 58.4156 159.576 58.1409C159.332 57.8645 159.207 57.5089 159.207 57.069V52.4208C158.444 53.0073 157.872 53.3865 157.49 53.5804L156.713 52.6416C156.345 55.1629 155.499 57.3386 154.161 59.174L152.864 58.451C153.871 57.3268 154.765 55.1848 155.555 52.0164L156.798 52.4107C158.219 51.7096 159.205 50.7962 159.778 49.6653H156.966V48.3474H159.709V46.4666H157.656V45.1486H159.712V43.1094H161.093V45.1486H164.07V43.1094H165.451V45.1486H167.517V46.4666H165.451V48.3491ZM153.336 44.6919L154.381 43.7616C155.631 44.2166 156.585 44.9312 157.242 45.9155L156.229 46.8525C155.518 45.7941 154.551 45.0745 153.336 44.6919ZM160.307 51.2394H165.089C164.74 50.8215 164.385 50.2956 164.016 49.667H161.246C161.11 50.1086 160.797 50.6293 160.307 51.2394ZM164.698 52.554H160.593V54.1871H164.698V52.554ZM164.07 46.4666H161.093V48.3491H164.07V46.4666Z" fill="#231816"/>
<path d="M178.808 42.4199L180.054 43.0974L179.709 43.389C182.701 45.8041 185.292 47.1995 187.489 47.5804L186.627 48.7703C186.39 48.718 185.976 48.595 185.391 48.4062V52.1156H172.315V48.2326C172.019 48.3793 171.632 48.541 171.138 48.7163L170.401 47.5265C174.173 46.0771 176.971 44.3783 178.808 42.4199ZM184.093 47.877V47.8282C183.565 47.631 182.807 47.2164 181.817 46.5675V47.1271H175.927V46.3636C175.043 46.9383 174.119 47.4237 173.164 47.8282V47.877H184.093ZM174.764 58.2048V59.0828H173.383V52.7139H184.327V59.0828H182.947V58.2048H174.764ZM175.232 49.1848V49.136H173.699V50.7977H175.56C175.474 50.6814 175.06 50.2989 174.304 49.6567C174.656 49.4478 174.961 49.2927 175.232 49.1848ZM182.947 54.0285H174.765V54.7515H182.947V54.0285ZM174.764 56.8868H182.945V56.0711H174.764V56.8868ZM178.18 50.7977V49.136H175.516V49.1848C176.124 49.6365 176.648 50.1725 177.092 50.7977H178.18ZM176.868 45.7838V45.8041H180.808V45.7838C180.062 45.2311 179.441 44.7086 178.927 44.2283C177.954 45.0238 177.264 45.5412 176.868 45.7838ZM179.562 50.7977H180.732C181.202 50.3393 181.61 49.7848 181.96 49.136H179.562V50.7977ZM182.164 49.136V49.168L183.085 49.6753L182.433 50.7994H184.012V49.1377L182.164 49.136Z" fill="#231816"/>
<path d="M188.951 46.9097V45.59H192.18C191.877 44.8957 191.339 44.203 190.556 43.5154L191.68 42.7334C192.726 43.5879 193.378 44.4676 193.647 45.3827L193.364 45.553V45.59H196.397V46.9097H188.951ZM189.8 47.877H195.637V49.1967H189.8V47.877ZM195.637 51.6134H189.8V50.3005H195.637V51.6134ZM195.272 52.9617V58.8604H193.891V57.9823H191.569V58.8604H190.188V52.9617H195.272ZM191.569 56.6694H193.893V54.283H191.569V56.6694ZM200.882 59.2075H199.501V49.6685H195.747V48.3506H199.501V42.9559H200.882V48.3506H205.105V49.6685H200.882V59.2075Z" fill="#231816"/>
<path d="M213.3 50.6139L209.314 50.5769V52.242L213.675 52.2774V58.8333H212.295V57.5137H209.314V58.8333H207.94V45.3978H209.5C209.993 44.7692 210.4 43.8979 210.71 42.7974C211.283 43.0249 211.7 43.2288 211.973 43.4075C211.655 44.2754 211.321 44.9411 210.98 45.3978H213.334L213.3 50.6139ZM209.314 49.2572H211.919V46.7174H209.314V49.2572ZM209.314 56.1924H212.296V53.5599H209.314V56.1924ZM220.574 55.1441V48.8174H218.942V59.3945H217.561V48.8174H215.964V57.2407H214.583V47.5028H217.563V45.2428H213.564V43.9249H223.062V45.2428H218.946V47.5028H221.958V54.7194C221.958 55.3059 221.931 55.7188 221.885 55.9581C221.833 56.2025 221.709 56.4132 221.503 56.5783C221.299 56.7502 221.037 56.848 220.707 56.8699C220.378 56.8952 220.04 56.9087 219.693 56.9137L219.196 55.5452C219.358 55.5183 219.503 55.5065 219.644 55.5065L220.101 55.5368C220.415 55.5368 220.574 55.4053 220.574 55.1441Z" fill="#231816"/>
<path d="M226.609 52.0263L225.54 50.9578C227.691 49.5573 229.107 47.7809 229.784 45.6271L230.943 46.3501C230.337 48.4668 228.89 50.3628 226.609 52.0263ZM234.736 53.2532L236.072 52.665C237.604 54.1262 238.722 55.9632 239.432 58.1693L238.052 58.803C237.88 58.2114 237.617 57.5457 237.262 56.8008L232.007 57.6131C230.219 57.8929 229.022 58.1204 228.422 58.2856L227.508 56.9592C229.796 54.9402 231.263 52.2521 231.921 48.8814L233.308 49.35C232.965 51.8645 231.743 54.2829 229.638 56.5969L229.677 56.634L236.668 55.5621C236.171 54.7599 235.526 53.9914 234.736 53.2532ZM230.436 44.0513H236.277C237.085 47.3849 238.572 49.6904 240.731 50.9712L239.724 52.0212C237.619 50.8078 236.087 48.5932 235.12 45.3675H230.438V44.0513H230.436Z" fill="#231816"/>
<path d="M251.048 42.4199L252.298 43.0974L251.956 43.389C254.948 45.8041 257.539 47.1995 259.736 47.5804L258.868 48.7703C258.637 48.718 258.221 48.595 257.632 48.4062V52.1156H244.562V48.2326C244.266 48.3793 243.872 48.541 243.385 48.7163L242.643 47.5265C246.411 46.0771 249.213 44.3783 251.048 42.4199ZM256.335 47.877V47.8282C255.81 47.631 255.045 47.2164 254.059 46.5675V47.1271H248.172V46.3636C247.285 46.9383 246.366 47.4237 245.409 47.8282V47.877H256.335ZM247.002 58.2048V59.0828H245.628V52.7139H256.566V59.0828H255.192V58.2048H247.002ZM247.477 49.1848V49.136H245.938V50.7977H247.799C247.719 50.6814 247.298 50.2989 246.549 49.6567C246.898 49.4478 247.209 49.2927 247.477 49.1848ZM255.192 54.0285H247.005V54.7515H255.192V54.0285ZM247.002 56.8868H255.189V56.0711H247.002V56.8868ZM250.424 50.7977V49.136H247.76V49.1848C248.364 49.6365 248.893 50.1725 249.332 50.7977H250.424ZM249.114 45.7838V45.8041H253.047V45.7838C252.304 45.2311 251.68 44.7086 251.173 44.2283C250.193 45.0238 249.509 45.5412 249.114 45.7838ZM251.804 50.7977H252.974C253.448 50.3393 253.855 49.7848 254.199 49.136H251.804V50.7977ZM254.409 49.136V49.168L255.323 49.6753L254.678 50.7994H256.258V49.1377L254.409 49.136Z" fill="#231816"/>
<path d="M34.6826 28.8831C32.4196 30.71 30.3738 31.374 28.1125 31.374C24.8039 31.374 22.2648 29.8825 20.7191 27.0646C19.7054 25.2226 19.239 22.7384 19.1397 18.6093C19.2575 14.7853 19.9226 11.9725 21.2713 9.97537C22.652 7.93106 25.1911 6.66032 27.7825 6.66032C29.9326 6.66032 31.975 7.37827 33.9063 8.81586L37.385 3.56773C35.287 1.7442 31.4783 0.530762 27.6764 0.530762C21.4902 0.530762 15.9725 3.84413 12.9922 9.41752C11.6267 11.991 10.4363 15.1055 10.4363 19.6778C10.4363 25.4282 12.5174 29.2017 15.033 32.028C18.1766 35.6194 22.2614 37.3351 27.5585 37.3351C31.9195 37.3351 35.1708 36.2345 38.21 33.7436L34.6826 28.8831Z" fill="#231816"/>
<path d="M93.5284 36.6745H101.585L89.9571 1.09033H80.2165L68.5884 36.6745H76.6452L79.2045 27.5585H90.9707L93.5284 36.6745ZM81.0062 21.1509L85.091 6.62497L89.1725 21.1509H81.0062Z" fill="#231816"/>
<path d="M62.9311 3.14812C60.5772 1.81334 58.4001 1.09033 51.2761 1.09033H42.699V36.7806H50.4275V27.5939L53.3286 27.6259C57.9792 27.6259 59.7909 27.1422 61.7205 26.2372C66.3121 24.0597 68.9691 19.5852 68.9691 14.0286C68.9691 9.19004 66.8577 5.32052 62.9311 3.14812ZM59.4222 18.7678C58.1897 20.6537 57.0834 21.1104 53.3875 21.1104L50.4275 21.1306V7.33281H54.4231C58.2503 7.33281 60.5234 9.86586 60.5234 14.0876C60.5234 16.2347 60.2018 17.5341 59.4222 18.7678Z" fill="#231816"/>
<path d="M135.498 1.09033H137.202V6.07723H142.897V1.09033H144.607V13.0073H142.897V7.58055H137.202V13.0073H135.498V1.09033Z" fill="#231816"/>
<path d="M151.428 4.09326C154.072 4.09326 155.848 6.00612 155.848 8.65209C155.848 11.1447 154.04 13.2109 151.428 13.2109C148.803 13.2109 146.995 11.1447 146.995 8.65209C146.995 6.00612 148.765 4.09326 151.428 4.09326ZM151.428 11.9132C153.302 11.9132 154.141 10.2077 154.141 8.65209C154.141 6.99541 153.134 5.39097 151.428 5.39097C149.706 5.39097 148.699 6.99372 148.699 8.65209C148.699 10.2077 149.534 11.9132 151.428 11.9132Z" fill="#231816"/>
<path d="M157.995 4.30056H159.547V5.68253H159.581C160.057 4.69156 161.219 4.09326 162.432 4.09326C164.681 4.09326 165.688 5.49209 165.688 7.83302V13.007H164.083V8.50209C164.083 6.4679 163.642 5.47692 162.241 5.39265C160.416 5.39265 159.601 6.86226 159.601 8.97399V13.0087H157.997V4.30056" fill="#231816"/>
<path d="M176.109 12.6319C176.109 15.2813 174.743 16.7981 171.627 16.7981C170.706 16.7981 169.904 16.6784 168.503 16.2015L168.675 14.7184C169.904 15.2829 170.635 15.502 171.812 15.502C173.502 15.502 174.509 14.3577 174.509 12.5106V11.6595H174.476C173.792 12.5628 172.664 13.0094 171.556 13.0094C169.064 13.0094 167.84 10.9719 167.84 8.72026C167.84 6.48551 169.103 4.0957 171.728 4.0957C173.263 4.0957 174.115 4.65523 174.595 5.60239H174.629V4.30131H176.112V12.6319M174.508 8.75734C174.508 6.94897 173.669 5.39341 171.962 5.39341C170.344 5.39341 169.54 7.15458 169.54 8.63768C169.54 10.2792 170.461 11.7117 171.962 11.7117C173.469 11.7117 174.508 10.3769 174.508 8.75734Z" fill="#231816"/>
<path d="M183.821 1.09033H185.525V6.3334L190.608 1.09033H192.878L187.281 6.72272L193.319 13.0073H190.832L185.525 7.16933V13.0073H183.821V1.09033Z" fill="#231816"/>
<path d="M198.809 4.09326C201.453 4.09326 203.229 6.00612 203.229 8.65209C203.229 11.1447 201.421 13.2109 198.809 13.2109C196.184 13.2109 194.376 11.1447 194.376 8.65209C194.378 6.00612 196.149 4.09326 198.809 4.09326ZM198.809 11.9132C200.687 11.9132 201.525 10.2077 201.525 8.65209C201.525 6.99541 200.518 5.39097 198.809 5.39097C197.087 5.39097 196.08 6.99372 196.08 8.65209C196.08 10.2077 196.915 11.9132 198.809 11.9132Z" fill="#231816"/>
<path d="M205.381 4.30056H206.934V5.68253H206.967C207.441 4.69156 208.606 4.09326 209.815 4.09326C212.068 4.09326 213.074 5.49209 213.074 7.83302V13.007H211.47V8.50209C211.47 6.4679 211.025 5.47692 209.628 5.39265C207.803 5.39265 206.981 6.86226 206.981 8.97399V13.0087H205.383L205.381 4.30056Z" fill="#231816"/>
<path d="M223.495 12.6319C223.495 15.2813 222.128 16.7981 219.01 16.7981C218.089 16.7981 217.287 16.6784 215.886 16.2015L216.058 14.7184C217.287 15.2829 218.021 15.502 219.195 15.502C220.885 15.502 221.892 14.3577 221.892 12.5106V11.6595H221.859C221.175 12.5628 220.05 13.0094 218.942 13.0094C216.452 13.0094 215.223 10.9719 215.223 8.72026C215.223 6.48551 216.486 4.0957 219.116 4.0957C220.648 4.0957 221.497 4.65523 221.977 5.60239H222.01V4.30131H223.497L223.495 12.6319ZM221.889 8.75734C221.889 6.94897 221.054 5.39341 219.343 5.39341C217.725 5.39341 216.925 7.15458 216.925 8.63768C216.925 10.2792 217.85 11.7117 219.343 11.7117C220.85 11.7117 221.889 10.3769 221.889 8.75734Z" fill="#231816"/>
<path d="M231.971 13.0073V1.09033" stroke="#231816" stroke-width="1.012" stroke-miterlimit="10"/>
<path d="M235.703 4.30056H237.263V5.68253H237.297C237.777 4.69156 238.935 4.09326 240.144 4.09326C242.394 4.09326 243.401 5.49209 243.401 7.83302V13.007H241.803V8.50209C241.803 6.4679 241.355 5.47692 239.954 5.39265C238.132 5.39265 237.319 6.86226 237.319 8.97399V13.0087H235.704L235.703 4.30056Z" fill="#231816"/>
<path d="M245.484 11.2981C246.115 11.711 247.016 11.9132 247.477 11.9132C248.215 11.9132 249.115 11.6048 249.115 10.6661C249.115 9.07848 245.347 9.21667 245.347 6.77463C245.347 4.96795 246.696 4.09326 248.418 4.09326C249.168 4.09326 249.781 4.24663 250.412 4.43538L250.274 5.83421C249.919 5.6168 248.964 5.39097 248.59 5.39097C247.768 5.39097 247.051 5.73309 247.051 6.45104C247.051 8.22401 250.819 7.71504 250.819 10.4925C250.819 12.3565 249.339 13.2092 247.787 13.2092C246.965 13.2092 246.13 13.1233 245.399 12.7289L245.484 11.2981Z" fill="#231816"/>
<path d="M257.388 5.60029H255.079V10.3614C255.079 11.3675 255.695 11.9136 256.435 11.9136C256.928 11.9136 257.283 11.7619 257.522 11.6051V12.9719C257.165 13.0747 256.672 13.2129 256.159 13.2129C254.502 13.2129 253.481 12.4259 253.481 10.6849V5.60029H251.515V4.3009H253.481V2.28356L255.079 1.76953V4.3009H257.388V5.60029Z" fill="#231816"/>
<path d="M261.311 2.35111H259.502V0.544434H261.311V2.35111ZM259.605 4.30104H261.203V13.0075H259.605V4.30104Z" fill="#231816"/>
<path d="M268.76 5.60029H266.458V10.3614C266.458 11.3675 267.069 11.9136 267.807 11.9136C268.3 11.9136 268.662 11.7619 268.898 11.6051V12.9719C268.543 13.0747 268.044 13.2129 267.536 13.2129C265.879 13.2129 264.858 12.4259 264.858 10.6849V5.60029H262.892V4.3009H264.858V2.28356L266.456 1.76953V4.3009H268.758V5.60029" fill="#231816"/>
<path d="M278.469 13.0072H276.916V11.6236H276.884C276.403 12.6128 275.244 13.2111 274.035 13.2111C271.779 13.2111 270.781 11.8089 270.781 9.4697V4.30078H272.377V8.80736C272.377 10.8382 272.825 11.8292 274.217 11.9134C276.047 11.9134 276.862 10.4489 276.862 8.32873V4.30078H278.467V13.0072" fill="#231816"/>
<path d="M285.822 5.60029H283.513V10.3614C283.513 11.3675 284.131 11.9136 284.862 11.9136C285.362 11.9136 285.717 11.7619 285.953 11.6051V12.9719C285.598 13.0747 285.104 13.2129 284.591 13.2129C282.941 13.2129 281.914 12.4259 281.914 10.6849V5.60029H279.954V4.3009H281.914V2.28356L283.511 1.76953V4.3009H285.82L285.822 5.60029Z" fill="#231816"/>
<path d="M294.503 12.6505C293.885 12.8679 293.188 13.2134 291.754 13.2134C288.671 13.2134 287.255 11.3359 287.255 8.50285C287.255 5.9226 288.873 4.0957 291.326 4.0957C294.227 4.0957 295.167 6.21417 295.167 9.01351H288.957C288.957 10.7359 290.306 11.9156 291.826 11.9156C292.878 11.9156 294.106 11.3696 294.502 11.0443V12.6505M293.464 7.81692C293.464 6.48382 292.675 5.39341 291.294 5.39341C289.728 5.39341 289.078 6.68943 288.959 7.81692H293.464Z" fill="#231816"/>
<path d="M305.916 4.09326C308.553 4.09326 310.329 6.00612 310.329 8.65209C310.329 11.1447 308.526 13.2109 305.916 13.2109C303.286 13.2109 301.482 11.1447 301.482 8.65209C301.482 6.00612 303.252 4.09326 305.916 4.09326ZM305.916 11.9132C307.79 11.9132 308.625 10.2077 308.625 8.65209C308.625 6.99541 307.618 5.39097 305.916 5.39097C304.193 5.39097 303.186 6.99372 303.186 8.65209C303.186 10.2077 304.022 11.9132 305.916 11.9132Z" fill="#231816"/>
<path d="M313.525 5.60036H311.471V4.30097H313.525V3.49707C313.525 1.38029 314.064 0 316.438 0C316.845 0 317.187 0.0471893 317.51 0.10112L317.445 1.39883C317.254 1.33141 316.951 1.29602 316.675 1.29602C315.295 1.29602 315.123 2.18251 315.123 3.36392V4.30434H317.425V5.60373H315.123V13.0125H313.525V5.60036Z" fill="#231816"/>
<path d="M146.784 36.4553C145.659 36.7165 144.445 36.9424 143.279 36.9424C138.286 36.9424 134.821 34.443 134.821 29.2269C134.821 23.9467 138.044 20.9873 143.279 20.9873C144.292 20.9873 145.639 21.1862 146.764 21.6294L146.54 24.2366C145.37 23.5726 144.311 23.4192 143.208 23.4192C140.031 23.4192 138.042 25.8495 138.042 29.0061C138.042 32.1442 139.989 34.5087 143.277 34.5087C144.488 34.5087 145.92 34.2458 146.651 33.8649L146.784 36.4553Z" fill="#231816"/>
<path d="M157.913 36.0343C156.827 36.6309 155.591 36.9427 154.003 36.9427C150.25 36.9427 148.068 34.777 148.068 31.0407C148.068 27.7492 149.81 25.0308 153.343 25.0308C157.559 25.0308 158.749 27.9262 158.749 31.9002H150.888C151.026 33.7389 152.302 34.777 154.134 34.777C155.572 34.777 156.808 34.2462 157.913 33.626V36.0343ZM155.927 29.8677C155.835 28.4301 155.171 27.1947 153.52 27.1947C151.863 27.1947 151.028 28.3458 150.89 29.8677H155.927Z" fill="#231816"/>
<path d="M161.132 25.2937H163.76V27.8807H163.806C163.937 26.8206 165.148 25.0308 166.917 25.0308C167.204 25.0308 167.51 25.0308 167.818 25.1201V28.1031C167.559 27.9481 167.028 27.8604 166.5 27.8604C164.089 27.8604 164.089 30.8688 164.089 32.5018V36.6781H161.132V25.2937Z" fill="#231816"/>
<path d="M170.623 27.4593H168.436V25.2936H170.623V23.0235L173.587 22.0679V25.2936H176.208V27.4593H173.587V32.763C173.587 33.7371 173.849 34.6405 174.974 34.6405C175.503 34.6405 176.013 34.5343 176.316 34.3287L176.409 36.6747C175.791 36.8499 175.107 36.9409 174.221 36.9409C171.91 36.9409 170.623 35.5017 170.623 33.2467V27.4593Z" fill="#231816"/>
<path d="M178.31 20.3911H181.265V23.2174H178.31V20.3911ZM178.31 25.2937H181.265V36.6765H178.31V25.2937Z" fill="#231816"/>
<path d="M185.459 27.4587H183.275V25.2931H185.459V23.7038C185.459 21.4286 186.742 19.8394 189.076 19.8394C189.832 19.8394 190.667 19.9506 191.239 20.0854L190.995 22.5325C190.733 22.3808 190.357 22.1365 189.712 22.1365C188.726 22.1365 188.416 23.001 188.416 23.8842V25.2931H190.994V27.4587H188.416V36.6758H185.456V27.4587" fill="#231816"/>
<path d="M193.029 20.3911H195.989V23.2174H193.029V20.3911ZM193.029 25.2937H195.989V36.6765H193.029V25.2937Z" fill="#231816"/>
<path d="M208.215 36.0343C207.132 36.6309 205.9 36.9427 204.309 36.9427C200.555 36.9427 198.37 34.777 198.37 31.0407C198.37 27.7492 200.113 25.0308 203.648 25.0308C207.861 25.0308 209.058 27.9262 209.058 31.9002H201.199C201.33 33.7389 202.613 34.777 204.442 34.777C205.879 34.777 207.112 34.2462 208.217 33.626L208.215 36.0343ZM206.23 29.8677C206.14 28.4301 205.48 27.1947 203.822 27.1947C202.168 27.1947 201.33 28.3458 201.197 29.8677H206.23Z" fill="#231816"/>
<path d="M218.942 35.3954H218.904C218.02 36.4976 216.806 36.9426 215.412 36.9426C211.926 36.9426 210.646 34.0691 210.646 30.9512C210.646 27.8148 211.926 25.0289 215.412 25.0289C216.892 25.0289 217.93 25.5379 218.813 26.6182H218.855V20.0977H221.815V36.6746H218.944V35.3954M216.23 34.6404C218.193 34.6404 218.831 32.5658 218.831 30.9512C218.831 29.3619 218.082 27.3277 216.184 27.3277C214.267 27.3277 213.735 29.4277 213.735 30.9512C213.735 32.5219 214.287 34.6404 216.23 34.6404Z" fill="#231816"/>
<path d="M230.995 21.2524H234.901C238.255 21.2524 241.326 22.2249 241.326 25.9124C241.326 29.5139 238.701 30.8184 235.388 30.8184H234.086V36.6766H230.995V21.2524ZM234.086 28.3865H235.172C236.718 28.3865 238.105 27.8792 238.105 26.0877C238.105 24.3046 236.755 23.6827 235.172 23.6827H234.086V28.3865Z" fill="#231816"/>
<path d="M253.712 36.6745H250.91V35.1273H250.865C249.964 36.2329 248.683 36.9407 247.129 36.9407C244.445 36.9407 243.274 35.038 243.274 32.4763V25.2917H246.226V31.3724C246.226 32.7611 246.248 34.6386 248.149 34.6386C250.292 34.6386 250.754 32.3179 250.754 30.8651V25.29H253.714L253.712 36.6745Z" fill="#231816"/>
<path d="M256.756 20.0977H259.716V26.753H259.755C260.577 25.6694 261.611 25.0289 263.156 25.0289C266.648 25.0289 267.925 27.8131 267.925 30.9512C267.925 34.0691 266.648 36.9426 263.156 36.9426C261.9 36.9426 260.531 36.4976 259.671 35.2842H259.627V36.6763H256.758L256.756 20.0977ZM262.341 34.6404C264.281 34.6404 264.84 32.5202 264.84 30.9512C264.84 29.4277 264.308 27.3277 262.387 27.3277C260.486 27.3277 259.737 29.3619 259.737 30.9512C259.737 32.5658 260.375 34.6404 262.341 34.6404Z" fill="#231816"/>
<path d="M271.792 36.6746V20.0977" stroke="#231816" stroke-width="1.758" stroke-miterlimit="10"/>
<path d="M276.443 20.3911H279.403V23.2174H276.443V20.3911ZM276.443 25.2937H279.403V36.6765H276.443V25.2937Z" fill="#231816"/>
<path d="M289.893 27.749C289.361 27.5046 288.788 27.3276 287.881 27.3276C286.052 27.3276 284.884 28.7888 284.884 30.9309C284.884 33.0325 285.875 34.642 287.946 34.642C288.788 34.642 289.709 34.3302 290.223 34.1128L290.356 36.5666C289.492 36.8296 288.611 36.9442 287.394 36.9442C283.665 36.9442 281.791 34.401 281.791 30.9326C281.791 27.6411 283.73 25.0322 287.283 25.0322C288.48 25.0322 289.342 25.1671 290.15 25.4097L289.893 27.749Z" fill="#231816"/>
<path d="M303.132 21.2524H306.618L312.669 36.6749H309.249L307.928 33.1374H301.672L300.33 36.6749H297.128L303.132 21.2524ZM304.836 24.3433H304.791L302.563 30.7072H307.067L304.836 24.3433Z" fill="#231816"/>
<path d="M321.76 27.749C321.234 27.5046 320.655 27.3276 319.754 27.3276C317.927 27.3276 316.749 28.7888 316.749 30.9309C316.749 33.0325 317.749 34.642 319.822 34.642C320.655 34.642 321.59 34.3302 322.096 34.1128L322.228 36.5666C321.364 36.8296 320.485 36.9442 319.268 36.9442C315.538 36.9442 313.664 34.401 313.664 30.9326C313.664 27.6411 315.612 25.0322 319.163 25.0322C320.354 25.0322 321.216 25.1671 322.031 25.4097L321.76 27.749Z" fill="#231816"/>
<path d="M331.566 27.749C331.034 27.5046 330.462 27.3276 329.554 27.3276C327.725 27.3276 326.557 28.7888 326.557 30.9309C326.557 33.0325 327.549 34.642 329.62 34.642C330.462 34.642 331.389 34.3302 331.896 34.1128L332.029 36.5666C331.165 36.8296 330.285 36.9442 329.074 36.9442C325.338 36.9442 323.464 34.401 323.464 30.9326C323.464 27.6411 325.404 25.0322 328.963 25.0322C330.153 25.0322 331.016 25.1671 331.831 25.4097L331.566 27.749Z" fill="#231816"/>
<path d="M339.206 25.0288C342.58 25.0288 345.163 27.3057 345.163 31.0623C345.163 34.3285 342.981 36.9407 339.206 36.9407C335.448 36.9407 333.264 34.3285 333.264 31.0623C333.264 27.3057 335.848 25.0288 339.206 25.0288ZM339.206 34.6403C341.479 34.6403 342.071 32.6078 342.071 30.7067C342.071 28.9641 341.144 27.3259 339.206 27.3259C337.281 27.3259 336.355 29.0045 336.355 30.7067C336.355 32.5909 336.956 34.6403 339.206 34.6403Z" fill="#231816"/>
<path d="M357.922 36.6745H355.121V35.1273H355.073C354.168 36.2329 352.891 36.9407 351.346 36.9407C348.646 36.9407 347.486 35.038 347.486 32.4763V25.2917H350.436V31.3724C350.436 32.7611 350.456 34.6386 352.359 34.6386C354.504 34.6386 354.962 32.3179 354.962 30.8651V25.29H357.924V36.6745" fill="#231816"/>
<path d="M360.967 25.2937H363.768V26.8408H363.815C364.745 25.5397 366.001 25.0308 367.547 25.0308C370.234 25.0308 371.406 26.9318 371.406 29.4969V36.6764H368.453V30.6008C368.453 29.207 368.424 27.3296 366.531 27.3296C364.388 27.3296 363.925 29.6469 363.925 31.1081V36.6781H360.965L360.967 25.2937Z" fill="#231816"/>
<path d="M375.423 27.4593H373.241V25.2936H375.423V23.0235L378.383 22.0679V25.2936H381.012V27.4593H378.383V32.763C378.383 33.7371 378.646 34.6405 379.771 34.6405C380.306 34.6405 380.811 34.5343 381.121 34.3287L381.207 36.6747C380.598 36.8499 379.904 36.9409 379.023 36.9409C376.706 36.9409 375.423 35.5017 375.423 33.2467V27.4593Z" fill="#231816"/>
<path d="M383.549 25.8951C384.698 25.3625 386.243 25.0288 387.499 25.0288C390.97 25.0288 392.399 26.4664 392.399 29.8253V31.2848C392.399 32.4342 392.419 33.2903 392.446 34.133C392.467 34.9925 392.514 35.788 392.578 36.6745H389.973C389.863 36.0745 389.863 35.3245 389.843 34.9756H389.796C389.112 36.2329 387.631 36.9407 386.284 36.9407C384.277 36.9407 382.31 35.7222 382.31 33.5583C382.31 31.8561 383.128 30.8651 384.25 30.3073C385.381 29.7562 386.836 29.6416 388.072 29.6416H389.707C389.707 27.8113 388.895 27.1928 387.146 27.1928C385.89 27.1928 384.634 27.6765 383.633 28.4281L383.549 25.8951ZM387.014 34.7751C387.92 34.7751 388.624 34.3723 389.092 33.7588C389.574 33.1167 389.705 32.2993 389.705 31.4145H388.427C387.099 31.4145 385.139 31.6336 385.139 33.3796C385.14 34.3538 385.954 34.7751 387.014 34.7751Z" fill="#231816"/>
<path d="M395.316 25.2937H398.116V26.8408H398.16C399.089 25.5397 400.345 25.0308 401.891 25.0308C404.583 25.0308 405.75 26.9318 405.75 29.4969V36.6764H402.797V30.6008C402.797 29.207 402.77 27.3296 400.877 27.3296C398.732 27.3296 398.274 29.6469 398.274 31.1081V36.6781H395.314V25.2937" fill="#231816"/>
<path d="M409.772 27.4593H407.586V25.2936H409.772V23.0235L412.732 22.0679V25.2936H415.362V27.4593H412.732V32.763C412.732 33.7371 412.995 34.6405 414.119 34.6405C414.65 34.6405 415.155 34.5343 415.466 34.3287L415.557 36.6747C414.941 36.8499 414.259 36.9409 413.368 36.9409C411.052 36.9409 409.772 35.5017 409.772 33.2467V27.4593Z" fill="#231816"/>
<path d="M424.144 27.6801C423.238 27.3751 422.576 27.1964 421.493 27.1964C420.697 27.1964 419.752 27.4846 419.752 28.457C419.752 30.2671 424.895 29.1211 424.895 33.2265C424.895 35.8793 422.534 36.9427 420.126 36.9427C419.001 36.9427 417.856 36.7421 416.772 36.4556L416.947 34.0237C417.877 34.4872 418.85 34.777 419.862 34.777C420.609 34.777 421.801 34.4872 421.801 33.3833C421.801 31.1519 416.659 32.6737 416.659 28.5683C416.659 26.1127 418.799 25.0308 421.116 25.0308C422.504 25.0308 423.409 25.2532 424.339 25.4538L424.144 27.6801Z" fill="#231816"/>
<path d="M53.5523 81.0852C50.1847 71.853 42.1346 64.6178 31.7677 62.7892L0 57.1821C3.36754 66.4161 11.4176 73.6495 21.7846 75.4781L53.5523 81.0852Z" fill="#CBCBCB"/>
<path d="M53.5526 63.0197C50.8552 55.6312 44.4164 49.8505 36.1222 48.3826L10.7141 43.8979C13.4048 51.2848 19.8435 57.0739 28.1378 58.5368L53.5526 63.0197Z" fill="#CBCBCB"/>
<path d="M57.1033 81.0845C60.4708 71.8522 68.5209 64.6171 78.8879 62.7885L110.656 57.1831C107.281 66.417 99.2379 73.6505 88.8709 75.4791L57.1033 81.0845Z" fill="#CBCBCB"/>
<path d="M57.1033 63.0195C59.7939 55.631 66.2394 49.8452 74.5303 48.3824L99.9417 43.896C97.2511 51.2828 90.8123 57.0702 82.5181 58.5348L57.1033 63.0195Z" fill="#C12026"/>
</svg>
